<?xml version="1.0" encoding="UTF-8"?>
<svg version="1.1" xmlns="http://www.w3.org/2000/svg" width="192" height="192">
<path d="M0 0 C2.23153906 0.0031536 4.46173964 -0.0203508 6.69311523 -0.0456543 C24.96146063 -0.12689981 41.45473098 4.65821009 56.43334961 15.31567383 C58.02856445 16.44682617 58.02856445 16.44682617 59.65600586 17.60083008 C80.12806446 32.51661588 93.93125734 54.24817935 98.43334961 79.31567383 C98.99201461 84.25085058 99.01309448 89.18855275 98.95483398 94.1496582 C98.93335124 96.31550925 98.9547912 98.47804589 98.98022461 100.64379883 C99.02462276 122.26585153 90.82574057 141.58971336 77.43334961 158.31567383 C76.71276367 159.2205957 75.99217773 160.12551758 75.24975586 161.05786133 C65.18029942 172.91949625 51.91067613 182.01476428 37.43334961 187.56567383 C36.79292725 187.81220703 36.15250488 188.05874023 35.49267578 188.31274414 C25.38237328 192.00313854 15.54249181 192.66281217 4.86669922 192.63134766 C2.63516016 192.62819405 0.40495958 192.65169845 -1.82641602 192.67700195 C-20.09476141 192.75824747 -36.58803176 187.97313757 -51.56665039 177.31567383 C-52.63012695 176.56157227 -53.69360352 175.8074707 -54.78930664 175.03051758 C-75.26136524 160.11473177 -89.06455812 138.3831683 -93.56665039 113.31567383 C-94.12531539 108.38049707 -94.14639526 103.44279491 -94.08813477 98.48168945 C-94.06665202 96.31583841 -94.08809198 94.15330177 -94.11352539 91.98754883 C-94.15792354 70.36549613 -85.95904136 51.0416343 -72.56665039 34.31567383 C-71.84606445 33.41075195 -71.12547852 32.50583008 -70.38305664 31.57348633 C-60.3136002 19.7118514 -47.04397691 10.61658338 -32.56665039 5.06567383 C-31.92622803 4.81914063 -31.28580566 4.57260742 -30.62597656 4.31860352 C-20.51567406 0.62820912 -10.67579259 -0.03146451 0 0 Z " fill="#FCFCFC" transform="translate(93.566650390625,-0.315673828125)"/>
<path d="M0 0 C2.375 1.125 2.375 1.125 4 3 C4.5 5.9375 4.5 5.9375 4 9 C2.01677007 11.7912125 0.87013879 12.82597224 -2.5 13.5 C-5.87013879 12.82597224 -7.01677007 11.7912125 -9 9 C-9.45742277 5.79804064 -9.55468045 3.92446741 -7.875 1.125 C-5.10703881 -0.53577671 -3.16909182 -0.38805206 0 0 Z " fill="#262C34" transform="translate(123,40)"/>
<path d="M0 0 C2.375 1.125 2.375 1.125 4 3 C4.5625 5.9375 4.5625 5.9375 4 9 C1.8125 11.4375 1.8125 11.4375 -1 13 C-3.89481608 12.93107581 -5.40685358 12.38861317 -7.8125 10.8125 C-9.58260835 8.11075568 -9.39415803 6.15326426 -9 3 C-6.78557651 -0.69070582 -4.02540619 -0.49290688 0 0 Z " fill="#262B34" transform="translate(48,92)"/>
<path d="M0 0 C3.05564772 0.53473835 4.41640793 1.1223977 6.5 3.4375 C7 6.375 7 6.375 6.5 9.4375 C4.51677007 12.2287125 3.37013879 13.26347224 0 13.9375 C-3.3376027 13.26997946 -4.50600369 12.17001347 -6.5 9.4375 C-7 6.9375 -7 6.9375 -6.5 4.4375 C-4.50108769 1.69824979 -3.36650098 0.58913767 0 0 Z " fill="#242A33" transform="translate(127.5,130.5625)"/>
<path d="M0 0 C3.0625 0.3125 3.0625 0.3125 5 1.5 C6.0625 3.3125 6.0625 3.3125 5.9375 5.8125 C4.99624198 8.50180863 4.46223442 9.76981359 2.0625 11.3125 C-1.27942692 11.06796876 -2.54293557 10.70706443 -4.9375 8.3125 C-5.1875 5.3125 -5.1875 5.3125 -4.9375 2.3125 C-2.9375 0.3125 -2.9375 0.3125 0 0 Z " fill="#2A2F38" transform="translate(58.9375,82.6875)"/>
<path d="M0 0 C2.5625 0.3125 2.5625 0.3125 4.375 1.5 C5.98775784 3.96157776 5.9959014 5.42315736 5.5625 8.3125 C4.375 10.125 4.375 10.125 2.5625 11.3125 C0.0625 11.75 0.0625 11.75 -2.4375 11.3125 C-4.3125 9.625 -4.3125 9.625 -5.4375 7.3125 C-5.14609088 3.23277231 -4.43505664 0.56859701 0 0 Z " fill="#292E37" transform="translate(136.4375,59.6875)"/>
<path d="M0 0 C1.8125 1.1875 1.8125 1.1875 3 3 C3.4375 5.5 3.4375 5.5 3 8 C1.3125 9.875 1.3125 9.875 -1 11 C-4.37036311 10.75925978 -5.58798021 10.41201979 -8 8 C-8.36487512 5.15397406 -8.40199375 3.6135694 -6.8125 1.1875 C-4.35092224 -0.42525784 -2.88934264 -0.4334014 0 0 Z " fill="#292E37" transform="translate(125,58)"/>
<path d="M0 0 C2.4375 0.8125 2.4375 0.8125 4.4375 2.8125 C4.6875 5.8125 4.6875 5.8125 4.4375 8.8125 C2.4375 10.8125 2.4375 10.8125 -0.5625 11.0625 C-3.5625 10.8125 -3.5625 10.8125 -5.5625 8.8125 C-5.89911952 5.6482765 -6.06193411 3.62736618 -4.375 0.875 C-2.5625 -0.1875 -2.5625 -0.1875 0 0 Z " fill="#262B34" transform="translate(112.5625,125.1875)"/>
<path d="M0 0 C3 0.25 3 0.25 5 2.25 C5.33661952 5.4142235 5.49943411 7.43513382 3.8125 10.1875 C2 11.25 2 11.25 -0.5625 11.0625 C-3 10.25 -3 10.25 -5 8.25 C-5.25 5.25 -5.25 5.25 -5 2.25 C-3 0.25 -3 0.25 0 0 Z " fill="#252A33" transform="translate(103,136.75)"/>
<path d="M0 0 C2.4375 0.75 2.4375 0.75 4.4375 2.75 C4.80237512 5.59602594 4.83949375 7.1364306 3.25 9.5625 C0.8239306 11.15199375 -0.71647406 11.11487512 -3.5625 10.75 C-5.5625 8.75 -5.5625 8.75 -5.875 5.25 C-5.771875 4.095 -5.66875 2.94 -5.5625 1.75 C-2.5625 -0.25 -2.5625 -0.25 0 0 Z " fill="#242A32" transform="translate(54.5625,69.25)"/>
<path d="M0 0 C2.5 0.25 2.5 0.25 4.5 2.25 C4.75 4.75 4.75 4.75 4.5 7.25 C2.5 9.25 2.5 9.25 0 9.5 C-2.5 9.25 -2.5 9.25 -4.5 7.25 C-4.75 4.75 -4.75 4.75 -4.5 2.25 C-2.5 0.25 -2.5 0.25 0 0 Z " fill="#292F37" transform="translate(146.5,79.75)"/>
<path d="M0 0 C2.5 0.25 2.5 0.25 4.5 2.25 C4.75 4.75 4.75 4.75 4.5 7.25 C2.5 9.25 2.5 9.25 0 9.5 C-2.5 9.25 -2.5 9.25 -4.5 7.25 C-4.75 4.75 -4.75 4.75 -4.5 2.25 C-2.5 0.25 -2.5 0.25 0 0 Z " fill="#292E37" transform="translate(72.5,77.75)"/>
<path d="M0 0 C2.5 0.25 2.5 0.25 4.5 2.25 C4.75 4.75 4.75 4.75 4.5 7.25 C2.5 9.25 2.5 9.25 0 9.5 C-2.5 9.25 -2.5 9.25 -4.5 7.25 C-4.75 4.75 -4.75 4.75 -4.5 2.25 C-2.5 0.25 -2.5 0.25 0 0 Z " fill="#2B3038" transform="translate(65.5,51.75)"/>
<path d="M0 0 C3 0.125 3 0.125 4 1.125 C4.1875 4.0625 4.1875 4.0625 4 7.125 C3.34 7.785 2.68 8.445 2 9.125 C-1.29714793 8.79528521 -2.6226839 8.5023161 -5 6.125 C-4.27477017 0.17811542 -4.27477017 0.17811542 0 0 Z " fill="#2A2F37" transform="translate(82,136.875)"/>
<path d="M0 0 C4.55555556 0.55555556 4.55555556 0.55555556 6 2 C6.125 5 6.125 5 6 8 C5 9 5 9 2.0625 9.1875 C-1 9 -1 9 -3 7 C-2.67028521 3.70285207 -2.3773161 2.3773161 0 0 Z " fill="#2B3139" transform="translate(133,75)"/>
<path d="M0 0 C2.5 0.25 2.5 0.25 4.5 2.25 C4.125 5.375 4.125 5.375 3.5 8.25 C0.625 8.875 0.625 8.875 -2.5 9.25 C-4.5 7.25 -4.5 7.25 -4.75 4.75 C-4.40058445 1.25584452 -3.49415548 0.34941555 0 0 Z " fill="#262B34" transform="translate(91.5,128.75)"/>
<path d="M0 0 C3.29714793 0.32971479 4.6226839 0.6226839 7 3 C6.44444444 7.55555556 6.44444444 7.55555556 5 9 C2.5625 9.1875 2.5625 9.1875 0 9 C-2 7 -2 7 -2.25 4.5 C-2 2 -2 2 0 0 Z " fill="#262B34" transform="translate(98,117)"/>
<path d="M0 0 C3.29714793 0.32971479 4.6226839 0.6226839 7 3 C6.44444444 7.55555556 6.44444444 7.55555556 5 9 C2.5625 9.1875 2.5625 9.1875 0 9 C-2 7 -2 7 -2.25 4.5 C-2 2 -2 2 0 0 Z " fill="#292E37" transform="translate(118,73)"/>
<path d="M0 0 C3.29714793 0.32971479 4.6226839 0.6226839 7 3 C6.44444444 7.55555556 6.44444444 7.55555556 5 9 C2.5625 9.1875 2.5625 9.1875 0 9 C-2 7 -2 7 -2.25 4.5 C-2 2 -2 2 0 0 Z " fill="#272D35" transform="translate(65,64)"/>
<path d="M0 0 C1 1 1 1 1.1875 3.4375 C1 6 1 6 -1 8 C-5.55555556 7.44444444 -5.55555556 7.44444444 -7 6 C-7.04063832 4.33382885 -7.042721 2.66611905 -7 1 C-4.51588385 -0.24205807 -2.74800896 -0.14092354 0 0 Z " fill="#32383F" transform="translate(119,86)"/>
<path d="M0 0 C2.5625 0.1875 2.5625 0.1875 4.5625 2.1875 C4.1875 4.8125 4.1875 4.8125 3.5625 7.1875 C1.1875 7.8125 1.1875 7.8125 -1.4375 8.1875 C-3.4375 6.1875 -3.4375 6.1875 -3.625 3.625 C-3.37291261 0.34786389 -3.27713611 0.25208739 0 0 Z " fill="#30363E" transform="translate(73.4375,127.8125)"/>
<path d="M0 0 C4.70588235 0.70588235 4.70588235 0.70588235 6 2 C6.125 4.5 6.125 4.5 6 7 C5 8 5 8 2.5625 8.1875 C0 8 0 8 -2 6 C-1.44444444 1.44444444 -1.44444444 1.44444444 0 0 Z " fill="#31363E" transform="translate(90,108)"/>
<path d="M0 0 C4.70588235 0.70588235 4.70588235 0.70588235 6 2 C6.125 4.5 6.125 4.5 6 7 C5 8 5 8 2.5625 8.1875 C0 8 0 8 -2 6 C-1.44444444 1.44444444 -1.44444444 1.44444444 0 0 Z " fill="#2F343C" transform="translate(140,92)"/>
<path d="M0 0 C2.625 0.375 2.625 0.375 5 1 C5.625 3.375 5.625 3.375 6 6 C5.34 6.66 4.68 7.32 4 8 C1.375 7.625 1.375 7.625 -1 7 C-1.625 4.625 -1.625 4.625 -2 2 C-1.34 1.34 -0.68 0.68 0 0 Z " fill="#2B3139" transform="translate(83,76)"/>
<path d="M0 0 C3.53571429 0.53571429 3.53571429 0.53571429 5 2 C5.125 4.5 5.125 4.5 5 7 C4 8 4 8 1.5625 8.1875 C-1 8 -1 8 -3 6 C-2.63318342 3.06546739 -2.13562754 2.13562754 0 0 Z " fill="#2B3039" transform="translate(76,50)"/>
<path d="M0 0 C2.5 0.125 2.5 0.125 3.5 1.125 C3.6875 3.5625 3.6875 3.5625 3.5 6.125 C2.84 6.785 2.18 7.445 1.5 8.125 C-1.125 7.75 -1.125 7.75 -3.5 7.125 C-3.54254356 5.12545254 -3.54080783 3.12458364 -3.5 1.125 C-2.5 0.125 -2.5 0.125 0 0 Z " fill="#292E37" transform="translate(83.5,119.875)"/>
<path d="M0 0 C2.5 0.125 2.5 0.125 3.5 1.125 C3.6875 3.5625 3.6875 3.5625 3.5 6.125 C2.84 6.785 2.18 7.445 1.5 8.125 C-2.03571429 7.58928571 -2.03571429 7.58928571 -3.5 6.125 C-3.625 3.625 -3.625 3.625 -3.5 1.125 C-2.5 0.125 -2.5 0.125 0 0 Z " fill="#242A32" transform="translate(79.5,62.875)"/>
<path d="M0 0 C2.5 0.125 2.5 0.125 3.5 1.125 C3.625 3.625 3.625 3.625 3.5 6.125 C2.5 7.125 2.5 7.125 0 7.25 C-2.5 7.125 -2.5 7.125 -3.5 6.125 C-3.625 3.625 -3.625 3.625 -3.5 1.125 C-2.5 0.125 -2.5 0.125 0 0 Z " fill="#1F242D" transform="translate(130.5,87.875)"/>
<path d="M0 0 C2.125 0.375 2.125 0.375 4 1 C4.38218767 2.65614657 4.71395102 4.32457024 5 6 C4 7 4 7 1.4375 7.0625 C0.2309375 7.0315625 0.2309375 7.0315625 -1 7 C-1.625 4.625 -1.625 4.625 -2 2 C-1.34 1.34 -0.68 0.68 0 0 Z " fill="#373C43" transform="translate(86,99)"/>
<path d="M0 0 C1.67542976 0.28604898 3.34385343 0.61781233 5 1 C5 2.65 5 4.3 5 6 C2.625 6.625 2.625 6.625 0 7 C-0.66 6.34 -1.32 5.68 -2 5 C-1.46428571 1.46428571 -1.46428571 1.46428571 0 0 Z " fill="#363B43" transform="translate(123,97)"/>
<path d="M0 0 C2.475 0.495 2.475 0.495 5 1 C5 1.99 5 2.98 5 4 C6.32 4.33 7.64 4.66 9 5 C9 5.99 9 6.98 9 8 C7.35 8 5.7 8 4 8 C4 7.01 4 6.02 4 5 C2.68 4.67 1.36 4.34 0 4 C0 2.68 0 1.36 0 0 Z " fill="#555960" transform="translate(101,59)"/>
<path d="M0 0 C1.67542976 0.28604898 3.34385343 0.61781233 5 1 C5 2.65 5 4.3 5 6 C2.625 6.625 2.625 6.625 0 7 C-0.66 6.34 -1.32 5.68 -2 5 C-1.46428571 1.46428571 -1.46428571 1.46428571 0 0 Z " fill="#32373F" transform="translate(77,111)"/>
<path d="M0 0 C2.125 0.375 2.125 0.375 4 1 C4.33 2.65 4.66 4.3 5 6 C3.02 6.33 1.04 6.66 -1 7 C-1.625 4.625 -1.625 4.625 -2 2 C-1.34 1.34 -0.68 0.68 0 0 Z " fill="#333840" transform="translate(94,77)"/>
<path d="M0 0 C1.67542976 0.28604898 3.34385343 0.61781233 5 1 C5 2.65 5 4.3 5 6 C3.34385343 6.38218767 1.67542976 6.71395102 0 7 C-1 6 -1 6 -1.125 3.5 C-1 1 -1 1 0 0 Z " fill="#30353D" transform="translate(67,119)"/>
<path d="M0 0 C1.2065625 0.0309375 1.2065625 0.0309375 2.4375 0.0625 C2.81968767 1.71864657 3.15145102 3.38707024 3.4375 5.0625 C2.4375 6.0625 2.4375 6.0625 -0.125 6.125 C-1.3315625 6.0940625 -1.3315625 6.0940625 -2.5625 6.0625 C-2.94468767 4.40635343 -3.27645102 2.73792976 -3.5625 1.0625 C-2.5625 0.0625 -2.5625 0.0625 0 0 Z " fill="#2E343C" transform="translate(136.5625,101.9375)"/>
<path d="M0 0 C2.0625 0.4375 2.0625 0.4375 4 1 C4.33 2.65 4.66 4.3 5 6 C2.625 6.625 2.625 6.625 0 7 C-0.66 6.34 -1.32 5.68 -2 5 C-1.46428571 1.46428571 -1.46428571 1.46428571 0 0 Z " fill="#2B3139" transform="translate(109,95)"/>
<path d="M0 0 C1.67542976 0.28604898 3.34385343 0.61781233 5 1 C4.67 2.98 4.34 4.96 4 7 C2.35 6.67 0.7 6.34 -1 6 C-1.042721 4.33388095 -1.04063832 2.66617115 -1 1 C-0.67 0.67 -0.34 0.34 0 0 Z " fill="#2D333B" transform="translate(88,64)"/>
<path d="M0 0 C1.65 0.33 3.3 0.66 5 1 C4.67 2.65 4.34 4.3 4 6 C2.35 5.67 0.7 5.34 -1 5 C-0.67 3.35 -0.34 1.7 0 0 Z " fill="#474B52" transform="translate(102,102)"/>
<path d="M0 0 C1.65 0.33 3.3 0.66 5 1 C4.67 2.65 4.34 4.3 4 6 C2.35 5.67 0.7 5.34 -1 5 C-0.67 3.35 -0.34 1.7 0 0 Z " fill="#1E232C" transform="translate(86,52)"/>
<path d="M0 0 C1.98 0 3.96 0 6 0 C5.67 1.65 5.34 3.3 5 5 C3.35 4.67 1.7 4.34 0 4 C0 2.68 0 1.36 0 0 Z " fill="#3D4249" transform="translate(101,81)"/>
<path d="M0 0 C1.65 0.33 3.3 0.66 5 1 C4.67 2.32 4.34 3.64 4 5 C2.35 4.67 0.7 4.34 -1 4 C-0.67 2.68 -0.34 1.36 0 0 Z " fill="#30353D" transform="translate(65,111)"/>
<path d="M0 0 C1.65 0.33 3.3 0.66 5 1 C4.67 2.32 4.34 3.64 4 5 C2.35 4.67 0.7 4.34 -1 4 C-0.67 2.68 -0.34 1.36 0 0 Z " fill="#31363E" transform="translate(128,109)"/>
<path d="M0 0 C1.98 0.495 1.98 0.495 4 1 C3.67 2.65 3.34 4.3 3 6 C1.68 5.67 0.36 5.34 -1 5 C-0.67 3.35 -0.34 1.7 0 0 Z " fill="#31363E" transform="translate(117,104)"/>
<path d="M0 0 C1.98 0.495 1.98 0.495 4 1 C3.67 2.65 3.34 4.3 3 6 C1.68 5.67 0.36 5.34 -1 5 C-0.67 3.35 -0.34 1.7 0 0 Z " fill="#333840" transform="translate(84,91)"/>
<path d="M0 0 C1.65 0 3.3 0 5 0 C5 1.65 5 3.3 5 5 C3.35 4.67 1.7 4.34 0 4 C0 2.68 0 1.36 0 0 Z " fill="#2A2F38" transform="translate(94,55)"/>
<path d="M0 0 C1.98 0.495 1.98 0.495 4 1 C4 2.32 4 3.64 4 5 C2.35 5 0.7 5 -1 5 C-0.67 3.35 -0.34 1.7 0 0 Z " fill="#262B34" transform="translate(75,103)"/>
<path d="M0 0 C1.98 0.495 1.98 0.495 4 1 C4 2.32 4 3.64 4 5 C2.35 5 0.7 5 -1 5 C-0.67 3.35 -0.34 1.7 0 0 Z " fill="#262B34" transform="translate(97,67)"/>
<path d="M0 0 C1.98 0.495 1.98 0.495 4 1 C3.67 2.32 3.34 3.64 3 5 C1.68 4.67 0.36 4.34 -1 4 C-0.67 2.68 -0.34 1.36 0 0 Z " fill="#373C44" transform="translate(122,113)"/>
<path d="M0 0 C0.99 0.33 1.98 0.66 3 1 C3 2.32 3 3.64 3 5 C1.35 4.67 -0.3 4.34 -2 4 C-2 3.01 -2 2.02 -2 1 C-1.34 0.67 -0.68 0.34 0 0 Z " fill="#3B4048" transform="translate(111,108)"/>
<path d="M0 0 C1.98 0.495 1.98 0.495 4 1 C3.67 2.32 3.34 3.64 3 5 C1.68 4.67 0.36 4.34 -1 4 C-0.67 2.68 -0.34 1.36 0 0 Z " fill="#383D44" transform="translate(104,71)"/>
<path d="M0 0 C1.65 0 3.3 0 5 0 C5 1.32 5 2.64 5 4 C3.35 4 1.7 4 0 4 C0 2.68 0 1.36 0 0 Z " fill="#3A3F46" transform="translate(64,104)"/>
<path d="M0 0 C1.65 0 3.3 0 5 0 C5 1.32 5 2.64 5 4 C3.35 4 1.7 4 0 4 C0 2.68 0 1.36 0 0 Z " fill="#383D45" transform="translate(74,96)"/>
</svg>
