<svg width="392" height="107" viewBox="0 0 392 107" fill="none" xmlns="http://www.w3.org/2000/svg">
<path d="M79.6051 12.4399C83.0869 12.4399 85.9094 9.65511 85.9094 6.21993C85.9094 2.78476 83.0869 0 79.6051 0C76.1233 0 73.3008 2.78476 73.3008 6.21993C73.3008 9.65511 76.1233 12.4399 79.6051 12.4399Z" fill="black"/>
<path d="M86.693 100.226C90.1748 100.226 92.9973 97.4415 92.9973 94.0063C92.9973 90.5711 90.1748 87.7864 86.693 87.7864C83.2112 87.7864 80.3887 90.5711 80.3887 94.0063C80.3887 97.4415 83.2112 100.226 86.693 100.226Z" fill="black"/>
<path d="M81.4011 27.9779C84.3237 27.9779 86.6929 25.6411 86.6929 22.7585C86.6929 19.8759 84.3237 17.5391 81.4011 17.5391C78.4786 17.5391 76.1094 19.8759 76.1094 22.7585C76.1094 25.6411 78.4786 27.9779 81.4011 27.9779Z" fill="black"/>
<path d="M95.4812 29.9643C98.4038 29.9643 100.773 27.6275 100.773 24.7448C100.773 21.8622 98.4038 19.5254 95.4812 19.5254C92.5587 19.5254 90.1895 21.8622 90.1895 24.7448C90.1895 27.6275 92.5587 29.9643 95.4812 29.9643Z" fill="black"/>
<path d="M79.6059 41.1782C82.0891 41.1782 84.1142 39.1893 84.1142 36.7423C84.1142 34.2953 82.1011 32.3064 79.6059 32.3064C77.1107 32.3064 75.0977 34.2953 75.0977 36.7423C75.0977 39.1893 77.1107 41.1782 79.6059 41.1782Z" fill="black"/>
<path d="M93.686 43.0674C96.1691 43.0674 98.1942 41.0785 98.1942 38.6315C98.1942 36.1845 96.1812 34.1956 93.686 34.1956C91.1908 34.1956 89.1777 36.1845 89.1777 38.6315C89.1777 41.0785 91.1908 43.0674 93.686 43.0674Z" fill="black"/>
<path d="M104.932 47.397C107.415 47.397 109.44 45.4081 109.44 42.9611C109.44 40.5141 107.427 38.5251 104.932 38.5251C102.437 38.5251 100.424 40.5141 100.424 42.9611C100.424 45.4081 102.437 47.397 104.932 47.397Z" fill="black"/>
<path d="M89.514 53.7267C91.6909 53.7267 93.4557 51.989 93.4557 49.8453C93.4557 47.7016 91.6909 45.9639 89.514 45.9639C87.337 45.9639 85.5723 47.7016 85.5723 49.8453C85.5723 51.989 87.337 53.7267 89.514 53.7267Z" fill="black"/>
<path d="M75.4358 51.8315C77.6128 51.8315 79.3775 50.0937 79.3775 47.95C79.3775 45.8064 77.6128 44.0686 75.4358 44.0686C73.2589 44.0686 71.4941 45.8064 71.4941 47.95C71.4941 50.0937 73.2589 51.8315 75.4358 51.8315Z" fill="black"/>
<path d="M100.893 58.0434C103.07 58.0434 104.835 56.3056 104.835 54.162C104.835 52.0183 103.07 50.2805 100.893 50.2805C98.7159 50.2805 96.9512 52.0183 96.9512 54.162C96.9512 56.3056 98.7159 58.0434 100.893 58.0434Z" fill="black"/>
<path d="M83.8853 61.8269C85.7536 61.8269 87.2725 60.3322 87.2725 58.4879C87.2725 56.6436 85.7536 55.1489 83.8853 55.1489C82.0169 55.1489 80.498 56.6436 80.498 58.4879C80.498 60.3322 82.0169 61.8269 83.8853 61.8269Z" fill="black"/>
<path d="M95.2642 66.0462C97.1326 66.0462 98.6514 64.5514 98.6514 62.7072C98.6514 60.8629 97.1326 59.3682 95.2642 59.3682C93.3958 59.3682 91.877 60.8629 91.877 62.7072C91.877 64.5514 93.3958 66.0462 95.2642 66.0462Z" fill="black"/>
<path d="M69.9263 59.8211C71.7947 59.8211 73.3135 58.3263 73.3135 56.4821C73.3135 54.6378 71.7947 53.1431 69.9263 53.1431C68.0579 53.1431 66.5391 54.6378 66.5391 56.4821C66.5391 58.3263 68.0579 59.8211 69.9263 59.8211Z" fill="black"/>
<path d="M77.6895 67.2629C79.2445 67.2629 80.4981 66.0213 80.4981 64.4905C80.4981 62.9596 79.2324 61.718 77.6895 61.718C76.1465 61.718 74.8809 62.9596 74.8809 64.4905C74.8809 66.0213 76.1465 67.2629 77.6895 67.2629Z" fill="black"/>
<path d="M82.5336 74.916C83.8984 74.916 85.0047 73.8259 85.0047 72.4811C85.0047 71.1363 83.8984 70.0461 82.5336 70.0461C81.1689 70.0461 80.0625 71.1363 80.0625 72.4811C80.0625 73.8259 81.1689 74.916 82.5336 74.916Z" fill="black"/>
<path d="M76.5681 76.4693C77.6865 76.4693 78.5932 75.5734 78.5932 74.4683C78.5932 73.3632 77.6865 72.4673 76.5681 72.4673C75.4496 72.4673 74.543 73.3632 74.543 74.4683C74.543 75.5734 75.4496 76.4693 76.5681 76.4693Z" fill="black"/>
<path d="M71.2758 70.6968C72.6405 70.6968 73.7469 69.6066 73.7469 68.2618C73.7469 66.9171 72.6405 65.8269 71.2758 65.8269C69.911 65.8269 68.8047 66.9171 68.8047 68.2618C68.8047 69.6066 69.911 70.6968 71.2758 70.6968Z" fill="black"/>
<path d="M63.6211 65.3674C65.1761 65.3674 66.4297 64.1258 66.4297 62.595C66.4297 61.0641 65.164 59.8225 63.6211 59.8225C62.0782 59.8225 60.8125 61.0641 60.8125 62.595C60.8125 64.1258 62.0782 65.3674 63.6211 65.3674Z" fill="black"/>
<path d="M63.502 44.4983C65.057 44.4983 66.3106 43.2567 66.3106 41.7258C66.3106 40.1949 65.0449 38.9534 63.502 38.9534C61.959 38.9534 60.6934 40.1949 60.6934 41.7258C60.6934 43.2567 61.959 44.4983 63.502 44.4983Z" fill="black"/>
<path d="M64.7426 34.7422C66.1073 34.7422 67.2137 33.652 67.2137 32.3072C67.2137 30.9625 66.1073 29.8723 64.7426 29.8723C63.3778 29.8723 62.2715 30.9625 62.2715 32.3072C62.2715 33.652 63.3778 34.7422 64.7426 34.7422Z" fill="black"/>
<path d="M67.4431 26.7471C68.5615 26.7471 69.4682 25.8512 69.4682 24.7461C69.4682 23.641 68.5615 22.7451 67.4431 22.7451C66.3246 22.7451 65.418 23.641 65.418 24.7461C65.418 25.8512 66.3246 26.7471 67.4431 26.7471Z" fill="black"/>
<path d="M62.7172 22.9736C64.0819 22.9736 65.1883 21.8835 65.1883 20.5387C65.1883 19.1939 64.0819 18.1038 62.7172 18.1038C61.3524 18.1038 60.2461 19.1939 60.2461 20.5387C60.2461 21.8835 61.3524 22.9736 62.7172 22.9736Z" fill="black"/>
<path d="M88.959 71.4822C90.514 71.4822 91.7676 70.2406 91.7676 68.7097C91.7676 67.1788 90.5019 65.9373 88.959 65.9373C87.4161 65.9373 86.1504 67.1788 86.1504 68.7097C86.1504 70.2406 87.4161 71.4822 88.959 71.4822Z" fill="black"/>
<path d="M56.293 19.7541C57.848 19.7541 59.1016 18.5126 59.1016 16.9817C59.1016 15.4508 57.8359 14.2092 56.293 14.2092C54.7501 14.2092 53.4844 15.4508 53.4844 16.9817C53.4844 18.5126 54.7501 19.7541 56.293 19.7541Z" fill="black"/>
<path d="M58.2207 31.5032C59.7757 31.5032 61.0293 30.2616 61.0293 28.7307C61.0293 27.1998 59.7637 25.9583 58.2207 25.9583C56.6778 25.9583 55.4121 27.1998 55.4121 28.7307C55.4121 30.2616 56.6778 31.5032 58.2207 31.5032Z" fill="black"/>
<path d="M55.063 42.7363C56.9314 42.7363 58.4502 41.2416 58.4502 39.3973C58.4502 37.5531 56.9314 36.0583 55.063 36.0583C53.1946 36.0583 51.6758 37.5531 51.6758 39.3973C51.6758 41.2416 53.1946 42.7363 55.063 42.7363Z" fill="black"/>
<path d="M44.805 42.7306C46.9819 42.7306 48.7467 40.9929 48.7467 38.8492C48.7467 36.7055 46.9819 34.9678 44.805 34.9678C42.628 34.9678 40.8633 36.7055 40.8633 38.8492C40.8633 40.9929 42.628 42.7306 44.805 42.7306Z" fill="black"/>
<path d="M32.8715 45.3977C35.3547 45.3977 37.3798 43.4088 37.3798 40.9618C37.3798 38.5148 35.3667 36.5259 32.8715 36.5259C30.3763 36.5259 28.3633 38.5148 28.3633 40.9618C28.3633 43.4088 30.3763 45.3977 32.8715 45.3977Z" fill="black"/>
<path d="M19.8172 51.7226C22.7397 51.7226 25.1089 49.3858 25.1089 46.5031C25.1089 43.6205 22.7397 41.2837 19.8172 41.2837C16.8946 41.2837 14.5254 43.6205 14.5254 46.5031C14.5254 49.3858 16.8946 51.7226 19.8172 51.7226Z" fill="black"/>
<path d="M6.30432 62.383C9.78609 62.383 12.6086 59.5982 12.6086 56.1631C12.6086 52.7279 9.78609 49.9431 6.30432 49.9431C2.82254 49.9431 0 52.7279 0 56.1631C0 59.5982 2.82254 62.383 6.30432 62.383Z" fill="black"/>
<path d="M14.5261 38.7275C17.4487 38.7275 19.8179 36.3906 19.8179 33.508C19.8179 30.6254 17.4487 28.2886 14.5261 28.2886C11.6036 28.2886 9.23438 30.6254 9.23438 33.508C9.23438 36.3906 11.6036 38.7275 14.5261 38.7275Z" fill="black"/>
<path d="M27.5922 32.4153C30.0754 32.4153 32.1005 30.4264 32.1005 27.9794C32.1005 25.5324 30.0874 23.5435 27.5922 23.5435C25.097 23.5435 23.084 25.5324 23.084 27.9794C23.084 30.4264 25.097 32.4153 27.5922 32.4153Z" fill="black"/>
<path d="M25.6762 20.6467C28.1594 20.6467 30.1845 18.6578 30.1845 16.2108C30.1845 13.7638 28.1714 11.7749 25.6762 11.7749C23.181 11.7749 21.168 13.7638 21.168 16.2108C21.168 18.6578 23.181 20.6467 25.6762 20.6467Z" fill="black"/>
<path d="M37.6077 17.9736C39.7847 17.9736 41.5494 16.2358 41.5494 14.0921C41.5494 11.9485 39.7847 10.2107 37.6077 10.2107C35.4308 10.2107 33.666 11.9485 33.666 14.0921C33.666 16.2358 35.4308 17.9736 37.6077 17.9736Z" fill="black"/>
<path d="M47.854 17.9856C49.7224 17.9856 51.2412 16.4909 51.2412 14.6466C51.2412 12.8023 49.7224 11.3076 47.854 11.3076C45.9856 11.3076 44.4668 12.8023 44.4668 14.6466C44.4668 16.4909 45.9856 17.9856 47.854 17.9856Z" fill="black"/>
<path d="M49.7583 29.7476C51.6267 29.7476 53.1455 28.2529 53.1455 26.4086C53.1455 24.5643 51.6267 23.0696 49.7583 23.0696C47.8899 23.0696 46.3711 24.5643 46.3711 26.4086C46.3711 28.2529 47.8899 29.7476 49.7583 29.7476Z" fill="black"/>
<path d="M39.5257 29.8459C41.7026 29.8459 43.4674 28.1081 43.4674 25.9644C43.4674 23.8208 41.7026 22.083 39.5257 22.083C37.3487 22.083 35.584 23.8208 35.584 25.9644C35.584 28.1081 37.3487 29.8459 39.5257 29.8459Z" fill="black"/>
<path d="M28.3747 59.3911C29.4957 59.3911 30.3998 58.4991 30.3998 57.3901C30.3998 56.2812 29.4957 55.3892 28.3747 55.3892C27.2537 55.3892 26.3496 56.2812 26.3496 57.3901C26.3496 58.4991 27.2537 59.3911 28.3747 59.3911Z" fill="black"/>
<path d="M36.475 58.3635C37.8398 58.3635 38.9461 57.2734 38.9461 55.9286C38.9461 54.5838 37.8398 53.4937 36.475 53.4937C35.1103 53.4937 34.0039 54.5838 34.0039 55.9286C34.0039 57.2734 35.1103 58.3635 36.475 58.3635Z" fill="black"/>
<path d="M45.3848 55.053C46.9398 55.053 48.1934 53.8114 48.1934 52.2805C48.1934 50.7496 46.9277 49.5081 45.3848 49.5081C43.8419 49.5081 42.5762 50.7496 42.5762 52.2805C42.5762 53.8114 43.8419 55.053 45.3848 55.053Z" fill="black"/>
<path d="M47.5181 63.9365C49.3865 63.9365 50.9053 62.4418 50.9053 60.5975C50.9053 58.7533 49.3865 57.2585 47.5181 57.2585C45.6497 57.2585 44.1309 58.7533 44.1309 60.5975C44.1309 62.4418 45.6497 63.9365 47.5181 63.9365Z" fill="black"/>
<path d="M36.7051 66.0491C38.2601 66.0491 39.5137 64.8075 39.5137 63.2766C39.5137 61.7457 38.248 60.5042 36.7051 60.5042C35.1622 60.5042 33.8965 61.7457 33.8965 63.2766C33.8965 64.8075 35.1622 66.0491 36.7051 66.0491Z" fill="black"/>
<path d="M27.1332 65.9258C28.498 65.9258 29.6043 64.8356 29.6043 63.4908C29.6043 62.1461 28.498 61.0559 27.1332 61.0559C25.7685 61.0559 24.6621 62.1461 24.6621 63.4908C24.6621 64.8356 25.7685 65.9258 27.1332 65.9258Z" fill="black"/>
<path d="M27.2539 73.5852C28.8089 73.5852 30.0625 72.3436 30.0625 70.8127C30.0625 69.2819 28.7969 68.0403 27.2539 68.0403C25.711 68.0403 24.4453 69.2819 24.4453 70.8127C24.4453 72.3436 25.711 73.5852 27.2539 73.5852Z" fill="black"/>
<path d="M38.729 75.0364C40.5974 75.0364 42.1162 73.5417 42.1162 71.6974C42.1162 69.8531 40.5974 68.3584 38.729 68.3584C36.8606 68.3584 35.3418 69.8531 35.3418 71.6974C35.3418 73.5417 36.8606 75.0364 38.729 75.0364Z" fill="black"/>
<path d="M52.1351 73.5832C54.312 73.5832 56.0768 71.8454 56.0768 69.7017C56.0768 67.5581 54.312 65.8203 52.1351 65.8203C49.9581 65.8203 48.1934 67.5581 48.1934 69.7017C48.1934 71.8454 49.9581 73.5832 52.1351 73.5832Z" fill="black"/>
<path d="M60.018 83.241C62.5012 83.241 64.5263 81.252 64.5263 78.8051C64.5263 76.3581 62.5132 74.3691 60.018 74.3691C57.5228 74.3691 55.5098 76.3581 55.5098 78.8051C55.5098 81.252 57.5228 83.241 60.018 83.241Z" fill="black"/>
<path d="M43.4554 84.5727C45.6323 84.5727 47.3971 82.8349 47.3971 80.6912C47.3971 78.5476 45.6323 76.8098 43.4554 76.8098C41.2784 76.8098 39.5137 78.5476 39.5137 80.6912C39.5137 82.8349 41.2784 84.5727 43.4554 84.5727Z" fill="black"/>
<path d="M34.1253 92.1154C36.3022 92.1154 38.067 90.3776 38.067 88.234C38.067 86.0903 36.3022 84.3525 34.1253 84.3525C31.9484 84.3525 30.1836 86.0903 30.1836 88.234C30.1836 90.3776 31.9484 92.1154 34.1253 92.1154Z" fill="black"/>
<path d="M41.8872 101.897C44.3703 101.897 46.3954 99.9078 46.3954 97.4608C46.3954 95.0138 44.3824 93.0249 41.8872 93.0249C39.3919 93.0249 37.3789 95.0138 37.3789 97.4608C37.3789 99.9078 39.3919 101.897 41.8872 101.897Z" fill="black"/>
<path d="M62.5965 103.665C65.5136 103.665 67.8882 101.326 67.8882 98.4455C67.8882 95.5646 65.5256 93.2261 62.5965 93.2261C59.6673 93.2261 57.3047 95.5646 57.3047 98.4455C57.3047 101.326 59.6673 103.665 62.5965 103.665Z" fill="black"/>
<path d="M51.2309 94.3474C53.7141 94.3474 55.7392 92.3585 55.7392 89.9115C55.7392 87.4645 53.7261 85.4756 51.2309 85.4756C48.7357 85.4756 46.7227 87.4645 46.7227 89.9115C46.7227 92.3585 48.7357 94.3474 51.2309 94.3474Z" fill="black"/>
<path d="M71.2761 92.578C74.1987 92.578 76.5679 90.2412 76.5679 87.3586C76.5679 84.476 74.1987 82.1392 71.2761 82.1392C68.3536 82.1392 65.9844 84.476 65.9844 87.3586C65.9844 90.2412 68.3536 92.578 71.2761 92.578Z" fill="black"/>
<path d="M29.3872 82.5791C31.2556 82.5791 32.7744 81.0844 32.7744 79.2401C32.7744 77.3958 31.2556 75.9011 29.3872 75.9011C27.5188 75.9011 26 77.3958 26 79.2401C26 81.0844 27.5188 82.5791 29.3872 82.5791Z" fill="black"/>
<path d="M204.956 13.8685H209.884L218.45 34.7861H218.766L227.332 13.8685H232.26V40.7776H228.397V21.3053H228.147L220.211 40.7382H217.005L209.069 21.2921H208.819V40.7776H204.956V13.8685ZM251.741 32.4079V20.5958H255.683V40.7776H251.82V37.2826H251.61C251.146 38.36 250.401 39.2578 249.376 39.9761C248.36 40.6856 247.095 41.0404 245.579 41.0404C244.283 41.0404 243.135 40.7557 242.137 40.1863C241.147 39.6082 240.367 38.7542 239.798 37.6242C239.237 36.4942 238.957 35.0971 238.957 33.4328V20.5958H242.886V32.9598C242.886 34.335 243.267 35.4299 244.029 36.2446C244.791 37.0592 245.781 37.4665 246.998 37.4665C247.734 37.4665 248.465 37.2826 249.192 36.9147C249.928 36.5468 250.537 35.9905 251.019 35.246C251.509 34.5014 251.75 33.5554 251.741 32.4079ZM262.072 13.8685H266.001V35.2591C266.001 36.1263 266.11 36.7395 266.329 37.0986C266.557 37.4577 266.986 37.6286 267.617 37.611C267.958 37.6023 268.212 37.5804 268.379 37.5453C268.554 37.5103 268.712 37.4709 268.852 37.4271L269.561 40.5674C269.29 40.6462 268.944 40.7207 268.523 40.7907C268.112 40.8696 267.643 40.9134 267.117 40.9221C265.418 40.9484 264.152 40.5455 263.32 39.7133C262.488 38.8812 262.072 37.668 262.072 36.0738V13.8685ZM282.684 20.5958V23.7492H271.66V20.5958H282.684ZM274.616 15.7605H278.545V34.8518C278.545 35.6139 278.659 36.1876 278.887 36.573C279.114 36.9497 279.408 37.2081 279.767 37.3483C280.135 37.4796 280.533 37.5453 280.963 37.5453C281.278 37.5453 281.554 37.5234 281.79 37.4796C282.027 37.4359 282.211 37.4008 282.342 37.3745L283.052 40.6199C282.824 40.7075 282.5 40.7951 282.079 40.8827C281.659 40.9791 281.133 41.0316 280.503 41.0404C279.469 41.0579 278.506 40.8739 277.612 40.4885C276.719 40.1031 275.996 39.5075 275.444 38.7016C274.892 37.8957 274.616 36.884 274.616 35.6664V15.7605ZM288.14 40.7776V20.5958H292.068V40.7776H288.14ZM290.124 17.4818C289.44 17.4818 288.853 17.254 288.363 16.7985C287.881 16.3343 287.64 15.7824 287.64 15.143C287.64 14.4948 287.881 13.943 288.363 13.4875C288.853 13.0232 289.44 12.7911 290.124 12.7911C290.807 12.7911 291.389 13.0232 291.871 13.4875C292.362 13.943 292.607 14.4948 292.607 15.143C292.607 15.7824 292.362 16.3343 291.871 16.7985C291.389 17.254 290.807 17.4818 290.124 17.4818ZM313.587 25.523L310.026 26.1537C309.877 25.6982 309.641 25.2646 309.316 24.8529C309.001 24.4412 308.572 24.1039 308.029 23.8412C307.486 23.5784 306.807 23.447 305.992 23.447C304.88 23.447 303.951 23.6966 303.207 24.1959C302.462 24.6864 302.09 25.3215 302.09 26.1011C302.09 26.7756 302.34 27.3187 302.839 27.7304C303.338 28.1421 304.144 28.4793 305.256 28.7421L308.462 29.4779C310.319 29.9071 311.703 30.5684 312.614 31.4619C313.525 32.3554 313.981 33.516 313.981 34.9438C313.981 36.1526 313.63 37.23 312.93 38.176C312.238 39.1133 311.27 39.8491 310.026 40.3834C308.791 40.9177 307.359 41.1849 305.729 41.1849C303.469 41.1849 301.626 40.7031 300.198 39.7396C298.77 38.7673 297.894 37.3877 297.57 35.6007L301.367 35.0226C301.604 36.0124 302.09 36.7614 302.826 37.2694C303.561 37.7687 304.521 38.0184 305.703 38.0184C306.991 38.0184 308.02 37.7512 308.791 37.2169C309.562 36.6738 309.947 36.0124 309.947 35.2328C309.947 34.6022 309.711 34.0722 309.238 33.643C308.773 33.2138 308.059 32.8897 307.096 32.6707L303.68 31.9218C301.796 31.4926 300.404 30.8093 299.501 29.872C298.608 28.9348 298.161 27.7479 298.161 26.3113C298.161 25.12 298.494 24.0777 299.16 23.1842C299.826 22.2907 300.745 21.5943 301.919 21.0951C303.093 20.587 304.437 20.333 305.953 20.333C308.134 20.333 309.851 20.806 311.103 21.752C312.356 22.6893 313.184 23.9463 313.587 25.523ZM319.41 40.7776V20.5958H323.339V40.7776H319.41ZM321.394 17.4818C320.711 17.4818 320.124 17.254 319.634 16.7985C319.152 16.3343 318.911 15.7824 318.911 15.143C318.911 14.4948 319.152 13.943 319.634 13.4875C320.124 13.0232 320.711 12.7911 321.394 12.7911C322.078 12.7911 322.66 13.0232 323.142 13.4875C323.632 13.943 323.878 14.4948 323.878 15.143C323.878 15.7824 323.632 16.3343 323.142 16.7985C322.66 17.254 322.078 17.4818 321.394 17.4818ZM338.196 48.7662C336.593 48.7662 335.213 48.556 334.057 48.1355C332.91 47.7151 331.972 47.1589 331.245 46.4669C330.518 45.7749 329.975 45.0172 329.616 44.1938L332.993 42.801C333.229 43.1864 333.545 43.5938 333.939 44.023C334.342 44.4609 334.885 44.8332 335.568 45.1398C336.26 45.4464 337.149 45.5997 338.235 45.5997C339.724 45.5997 340.955 45.2362 341.927 44.5091C342.9 43.7908 343.386 42.6434 343.386 41.0667V37.0986H343.136C342.9 37.5278 342.558 38.0052 342.111 38.5308C341.673 39.0564 341.069 39.5118 340.298 39.8973C339.527 40.2827 338.524 40.4754 337.289 40.4754C335.695 40.4754 334.258 40.1031 332.98 39.3586C331.709 38.6052 330.702 37.4972 329.958 36.0343C329.222 34.5627 328.854 32.7539 328.854 30.6078C328.854 28.4618 329.217 26.6223 329.944 25.0894C330.68 23.5565 331.688 22.3827 332.966 21.5681C334.245 20.7447 335.695 20.333 337.316 20.333C338.568 20.333 339.58 20.5432 340.351 20.9637C341.122 21.3754 341.722 21.8571 342.151 22.409C342.589 22.9608 342.926 23.447 343.162 23.8674H343.452V20.5958H347.301V41.2243C347.301 42.9587 346.898 44.3821 346.093 45.4946C345.287 46.607 344.196 47.4304 342.821 47.9647C341.454 48.4991 339.913 48.7662 338.196 48.7662ZM338.156 37.2169C339.286 37.2169 340.241 36.9541 341.021 36.4285C341.809 35.8942 342.405 35.1321 342.808 34.1423C343.219 33.1437 343.425 31.948 343.425 30.5553C343.425 29.1976 343.224 28.0019 342.821 26.9683C342.418 25.9347 341.827 25.1288 341.047 24.5507C340.267 23.9638 339.304 23.6703 338.156 23.6703C336.974 23.6703 335.988 23.9769 335.2 24.5901C334.412 25.1945 333.816 26.0179 333.413 27.0603C333.019 28.1026 332.822 29.2676 332.822 30.5553C332.822 31.878 333.023 33.0386 333.426 34.0372C333.829 35.0358 334.425 35.8153 335.213 36.376C336.01 36.9366 336.991 37.2169 338.156 37.2169ZM204.956 58.8685H209.884L218.45 79.7861H218.766L227.332 58.8685H232.26V85.7776H228.397V66.3053H228.147L220.211 85.7382H217.005L209.069 66.2921H208.819V85.7776H204.956V58.8685ZM246.512 86.1718C244.883 86.1718 243.429 85.7557 242.15 84.9235C240.88 84.0826 239.881 82.887 239.154 81.3365C238.436 79.7774 238.077 77.9072 238.077 75.7261C238.077 73.545 238.44 71.6792 239.167 70.1288C239.903 68.5784 240.91 67.3915 242.189 66.5681C243.468 65.7447 244.918 65.333 246.538 65.333C247.791 65.333 248.798 65.5432 249.56 65.9637C250.331 66.3754 250.927 66.8571 251.347 67.409C251.777 67.9608 252.109 68.447 252.346 68.8674H252.582V65.5958H256.511V85.7776H252.674V82.6373H252.346C252.109 83.0665 251.768 83.5571 251.321 84.1089C250.883 84.6608 250.279 85.1425 249.508 85.5542C248.737 85.9659 247.738 86.1718 246.512 86.1718ZM247.379 82.8213C248.509 82.8213 249.464 82.5234 250.244 81.9278C251.032 81.3234 251.628 80.4869 252.031 79.4182C252.442 78.3496 252.648 77.1057 252.648 75.6867C252.648 74.2852 252.447 73.0588 252.044 72.0077C251.641 70.9566 251.049 70.1376 250.27 69.5507C249.49 68.9638 248.527 68.6703 247.379 68.6703C246.197 68.6703 245.211 68.9769 244.423 69.5901C243.635 70.2033 243.039 71.0398 242.636 72.0997C242.242 73.1596 242.045 74.3552 242.045 75.6867C242.045 77.0356 242.246 78.2488 242.649 79.3262C243.052 80.4037 243.648 81.2577 244.436 81.8884C245.233 82.5103 246.214 82.8213 247.379 82.8213ZM267.157 73.7946V85.7776H263.228V65.5958H266.999V68.8806H267.249C267.713 67.8119 268.44 66.9535 269.43 66.3053C270.428 65.6571 271.685 65.333 273.201 65.333C274.576 65.333 275.78 65.622 276.814 66.2002C277.848 66.7695 278.649 67.6192 279.219 68.7492C279.788 69.8792 280.073 71.2763 280.073 72.9406V85.7776H276.144V73.4136C276.144 71.9508 275.763 70.8077 275.001 69.9843C274.239 69.1521 273.192 68.736 271.861 68.736C270.95 68.736 270.139 68.9331 269.43 69.3273C268.729 69.7215 268.173 70.2996 267.761 71.0617C267.358 71.815 267.157 72.726 267.157 73.7946ZM294.006 86.1718C292.377 86.1718 290.923 85.7557 289.644 84.9235C288.374 84.0826 287.376 82.887 286.649 81.3365C285.93 79.7774 285.571 77.9072 285.571 75.7261C285.571 73.545 285.935 71.6792 286.662 70.1288C287.397 68.5784 288.405 67.3915 289.684 66.5681C290.963 65.7447 292.412 65.333 294.033 65.333C295.285 65.333 296.293 65.5432 297.055 65.9637C297.826 66.3754 298.421 66.8571 298.842 67.409C299.271 67.9608 299.604 68.447 299.84 68.8674H300.077V65.5958H304.005V85.7776H300.169V82.6373H299.84C299.604 83.0665 299.262 83.5571 298.815 84.1089C298.377 84.6608 297.773 85.1425 297.002 85.5542C296.231 85.9659 295.233 86.1718 294.006 86.1718ZM294.874 82.8213C296.004 82.8213 296.958 82.5234 297.738 81.9278C298.526 81.3234 299.122 80.4869 299.525 79.4182C299.937 78.3496 300.143 77.1057 300.143 75.6867C300.143 74.2852 299.941 73.0588 299.538 72.0077C299.135 70.9566 298.544 70.1376 297.764 69.5507C296.985 68.9638 296.021 68.6703 294.874 68.6703C293.691 68.6703 292.706 68.9769 291.917 69.5901C291.129 70.2033 290.533 71.0398 290.13 72.0997C289.736 73.1596 289.539 74.3552 289.539 75.6867C289.539 77.0356 289.741 78.2488 290.144 79.3262C290.547 80.4037 291.142 81.2577 291.93 81.8884C292.728 82.5103 293.709 82.8213 294.874 82.8213ZM319.184 93.7662C317.581 93.7662 316.202 93.556 315.045 93.1355C313.898 92.7151 312.961 92.1589 312.234 91.4669C311.507 90.7749 310.963 90.0172 310.604 89.1938L313.981 87.801C314.218 88.1864 314.533 88.5938 314.927 89.023C315.33 89.4609 315.873 89.8332 316.556 90.1398C317.248 90.4464 318.137 90.5997 319.224 90.5997C320.713 90.5997 321.943 90.2362 322.916 89.5091C323.888 88.7908 324.374 87.6434 324.374 86.0667V82.0986H324.125C323.888 82.5278 323.546 83.0052 323.1 83.5308C322.662 84.0564 322.057 84.5118 321.287 84.8973C320.516 85.2827 319.513 85.4754 318.278 85.4754C316.683 85.4754 315.247 85.1031 313.968 84.3586C312.698 83.6052 311.691 82.4972 310.946 81.0343C310.21 79.5627 309.842 77.7539 309.842 75.6078C309.842 73.4618 310.206 71.6223 310.933 70.0894C311.669 68.5565 312.676 67.3827 313.955 66.5681C315.234 65.7447 316.683 65.333 318.304 65.333C319.557 65.333 320.568 65.5432 321.339 65.9637C322.11 66.3754 322.71 66.8571 323.139 67.409C323.577 67.9608 323.914 68.447 324.151 68.8674H324.44V65.5958H328.29V86.2243C328.29 87.9587 327.887 89.3821 327.081 90.4946C326.275 91.607 325.184 92.4304 323.809 92.9647C322.443 93.4991 320.901 93.7662 319.184 93.7662ZM319.145 82.2169C320.275 82.2169 321.23 81.9541 322.009 81.4285C322.798 80.8942 323.393 80.1321 323.796 79.1423C324.208 78.1437 324.414 76.948 324.414 75.5553C324.414 74.1976 324.212 73.0019 323.809 71.9683C323.406 70.9347 322.815 70.1288 322.035 69.5507C321.256 68.9638 320.292 68.6703 319.145 68.6703C317.962 68.6703 316.977 68.9769 316.188 69.5901C315.4 70.1945 314.804 71.0179 314.402 72.0603C314.007 73.1026 313.81 74.2676 313.81 75.5553C313.81 76.878 314.012 78.0386 314.415 79.0372C314.818 80.0358 315.413 80.8153 316.202 81.376C316.999 81.9366 317.98 82.2169 319.145 82.2169ZM343.367 86.1849C341.378 86.1849 339.666 85.7601 338.229 84.9104C336.801 84.052 335.698 82.8475 334.918 81.2971C334.147 79.7379 333.762 77.9116 333.762 75.8181C333.762 73.7508 334.147 71.9289 334.918 70.3522C335.698 68.7755 336.784 67.5448 338.177 66.66C339.578 65.7753 341.216 65.333 343.091 65.333C344.229 65.333 345.333 65.5213 346.402 65.898C347.47 66.2746 348.43 66.8659 349.279 67.6718C350.129 68.4776 350.799 69.5244 351.29 70.812C351.78 72.0909 352.025 73.6457 352.025 75.4765V76.8692H335.982V73.926H348.176C348.176 72.8924 347.965 71.977 347.545 71.1799C347.124 70.3741 346.533 69.739 345.771 69.2747C345.018 68.8105 344.133 68.5784 343.117 68.5784C342.013 68.5784 341.05 68.8499 340.226 69.393C339.412 69.9273 338.781 70.6281 338.334 71.4953C337.896 72.3537 337.677 73.2866 337.677 74.2939V76.5933C337.677 77.9422 337.914 79.0897 338.387 80.0358C338.869 80.9818 339.539 81.7044 340.397 82.2037C341.256 82.6943 342.259 82.9395 343.406 82.9395C344.151 82.9395 344.83 82.8344 345.443 82.6242C346.056 82.4052 346.586 82.0811 347.033 81.6519C347.479 81.2227 347.821 80.6927 348.057 80.062L351.776 80.7321C351.478 81.8271 350.944 82.7862 350.173 83.6096C349.411 84.4242 348.452 85.0593 347.295 85.5148C346.148 85.9615 344.838 86.1849 343.367 86.1849ZM357.494 85.7776V65.5958H361.292V68.8017H361.502C361.87 67.7156 362.518 66.8615 363.446 66.2396C364.375 65.6089 365.435 65.2936 366.626 65.2936C367.178 65.2936 367.673 65.3593 368.111 65.4907C368.549 65.622 368.934 65.8016 369.267 66.0294L368.006 69.3142C367.769 69.2003 367.502 69.1083 367.204 69.0382C366.906 68.9594 366.565 68.92 366.179 68.92C365.268 68.92 364.454 69.1171 363.735 69.5113C363.026 69.8967 362.461 70.431 362.041 71.1142C361.629 71.7975 361.423 72.5771 361.423 73.453V85.7776H357.494Z" fill="black"/>
<path d="M157 0.140625L157 106.141" stroke="black"/>
</svg>
