<svg width="614" height="105" viewBox="0 0 614 105" fill="none" xmlns="http://www.w3.org/2000/svg">
<path d="M164.763 19.3113H157V86.2359H164.763V19.3113Z" fill="black"/>
<path d="M252.111 52.7224C252.111 37.8476 239.84 25.1907 225.207 25.1907C210.573 25.1907 198.181 37.8476 198.181 52.7224C198.181 67.5972 210.561 80.3625 225.207 80.3625C239.852 80.3625 252.111 67.7177 252.111 52.7224ZM190.406 52.7224C190.406 33.9661 206.402 18.0908 225.207 18.0908C244.011 18.0908 259.886 33.8576 259.886 52.7224C259.886 71.5871 244.011 87.3539 225.207 87.3539C206.511 87.4624 190.406 71.5871 190.406 52.7224Z" fill="black"/>
<path d="M299.737 26.5317H276.883V19.3113H330.259V26.5317H307.392V86.2359H299.629L299.737 26.5317Z" fill="black"/>
<path d="M371.003 28.6291L345.219 86.2359H336.781L365.048 23.0842C366.061 20.7457 368.435 19.3113 370.907 19.3113C373.378 19.3113 375.752 20.7578 376.765 23.0842L405.032 86.2359H396.594L371.027 28.6291H371.003Z" fill="black"/>
<path d="M79.6051 12.4399C83.0869 12.4399 85.9094 9.65511 85.9094 6.21993C85.9094 2.78476 83.0869 0 79.6051 0C76.1233 0 73.3008 2.78476 73.3008 6.21993C73.3008 9.65511 76.1233 12.4399 79.6051 12.4399Z" fill="black"/>
<path d="M86.693 100.226C90.1748 100.226 92.9973 97.4415 92.9973 94.0063C92.9973 90.5711 90.1748 87.7864 86.693 87.7864C83.2112 87.7864 80.3887 90.5711 80.3887 94.0063C80.3887 97.4415 83.2112 100.226 86.693 100.226Z" fill="black"/>
<path d="M81.4011 27.9779C84.3237 27.9779 86.6929 25.6411 86.6929 22.7585C86.6929 19.8759 84.3237 17.5391 81.4011 17.5391C78.4786 17.5391 76.1094 19.8759 76.1094 22.7585C76.1094 25.6411 78.4786 27.9779 81.4011 27.9779Z" fill="black"/>
<path d="M95.4812 29.9643C98.4038 29.9643 100.773 27.6275 100.773 24.7448C100.773 21.8622 98.4038 19.5254 95.4812 19.5254C92.5587 19.5254 90.1895 21.8622 90.1895 24.7448C90.1895 27.6275 92.5587 29.9643 95.4812 29.9643Z" fill="black"/>
<path d="M79.6059 41.1782C82.0891 41.1782 84.1142 39.1893 84.1142 36.7423C84.1142 34.2953 82.1011 32.3064 79.6059 32.3064C77.1107 32.3064 75.0977 34.2953 75.0977 36.7423C75.0977 39.1893 77.1107 41.1782 79.6059 41.1782Z" fill="black"/>
<path d="M93.686 43.0674C96.1691 43.0674 98.1942 41.0785 98.1942 38.6315C98.1942 36.1845 96.1812 34.1956 93.686 34.1956C91.1908 34.1956 89.1777 36.1845 89.1777 38.6315C89.1777 41.0785 91.1908 43.0674 93.686 43.0674Z" fill="black"/>
<path d="M104.932 47.397C107.415 47.397 109.44 45.4081 109.44 42.9611C109.44 40.5141 107.427 38.5251 104.932 38.5251C102.437 38.5251 100.424 40.5141 100.424 42.9611C100.424 45.4081 102.437 47.397 104.932 47.397Z" fill="black"/>
<path d="M89.514 53.7267C91.6909 53.7267 93.4557 51.989 93.4557 49.8453C93.4557 47.7016 91.6909 45.9639 89.514 45.9639C87.337 45.9639 85.5723 47.7016 85.5723 49.8453C85.5723 51.989 87.337 53.7267 89.514 53.7267Z" fill="black"/>
<path d="M75.4358 51.8315C77.6128 51.8315 79.3775 50.0937 79.3775 47.95C79.3775 45.8064 77.6128 44.0686 75.4358 44.0686C73.2589 44.0686 71.4941 45.8064 71.4941 47.95C71.4941 50.0937 73.2589 51.8315 75.4358 51.8315Z" fill="black"/>
<path d="M100.893 58.0434C103.07 58.0434 104.835 56.3056 104.835 54.162C104.835 52.0183 103.07 50.2805 100.893 50.2805C98.7159 50.2805 96.9512 52.0183 96.9512 54.162C96.9512 56.3056 98.7159 58.0434 100.893 58.0434Z" fill="black"/>
<path d="M83.8853 61.8269C85.7536 61.8269 87.2725 60.3322 87.2725 58.4879C87.2725 56.6436 85.7536 55.1489 83.8853 55.1489C82.0169 55.1489 80.498 56.6436 80.498 58.4879C80.498 60.3322 82.0169 61.8269 83.8853 61.8269Z" fill="black"/>
<path d="M95.2642 66.0462C97.1326 66.0462 98.6514 64.5514 98.6514 62.7072C98.6514 60.8629 97.1326 59.3682 95.2642 59.3682C93.3958 59.3682 91.877 60.8629 91.877 62.7072C91.877 64.5514 93.3958 66.0462 95.2642 66.0462Z" fill="black"/>
<path d="M69.9263 59.8211C71.7947 59.8211 73.3135 58.3263 73.3135 56.4821C73.3135 54.6378 71.7947 53.1431 69.9263 53.1431C68.0579 53.1431 66.5391 54.6378 66.5391 56.4821C66.5391 58.3263 68.0579 59.8211 69.9263 59.8211Z" fill="black"/>
<path d="M77.6895 67.2629C79.2445 67.2629 80.4981 66.0213 80.4981 64.4905C80.4981 62.9596 79.2324 61.718 77.6895 61.718C76.1465 61.718 74.8809 62.9596 74.8809 64.4905C74.8809 66.0213 76.1465 67.2629 77.6895 67.2629Z" fill="black"/>
<path d="M82.5336 74.916C83.8984 74.916 85.0047 73.8259 85.0047 72.4811C85.0047 71.1363 83.8984 70.0461 82.5336 70.0461C81.1689 70.0461 80.0625 71.1363 80.0625 72.4811C80.0625 73.8259 81.1689 74.916 82.5336 74.916Z" fill="black"/>
<path d="M76.5681 76.4693C77.6865 76.4693 78.5932 75.5734 78.5932 74.4683C78.5932 73.3632 77.6865 72.4673 76.5681 72.4673C75.4496 72.4673 74.543 73.3632 74.543 74.4683C74.543 75.5734 75.4496 76.4693 76.5681 76.4693Z" fill="black"/>
<path d="M71.2758 70.6968C72.6405 70.6968 73.7469 69.6066 73.7469 68.2618C73.7469 66.9171 72.6405 65.8269 71.2758 65.8269C69.911 65.8269 68.8047 66.9171 68.8047 68.2618C68.8047 69.6066 69.911 70.6968 71.2758 70.6968Z" fill="black"/>
<path d="M63.6211 65.3674C65.1761 65.3674 66.4297 64.1258 66.4297 62.595C66.4297 61.0641 65.164 59.8225 63.6211 59.8225C62.0782 59.8225 60.8125 61.0641 60.8125 62.595C60.8125 64.1258 62.0782 65.3674 63.6211 65.3674Z" fill="black"/>
<path d="M63.502 44.4983C65.057 44.4983 66.3106 43.2567 66.3106 41.7258C66.3106 40.1949 65.0449 38.9534 63.502 38.9534C61.959 38.9534 60.6934 40.1949 60.6934 41.7258C60.6934 43.2567 61.959 44.4983 63.502 44.4983Z" fill="black"/>
<path d="M64.7426 34.7422C66.1073 34.7422 67.2137 33.652 67.2137 32.3072C67.2137 30.9625 66.1073 29.8723 64.7426 29.8723C63.3778 29.8723 62.2715 30.9625 62.2715 32.3072C62.2715 33.652 63.3778 34.7422 64.7426 34.7422Z" fill="black"/>
<path d="M67.4431 26.7471C68.5615 26.7471 69.4682 25.8512 69.4682 24.7461C69.4682 23.641 68.5615 22.7451 67.4431 22.7451C66.3246 22.7451 65.418 23.641 65.418 24.7461C65.418 25.8512 66.3246 26.7471 67.4431 26.7471Z" fill="black"/>
<path d="M62.7172 22.9736C64.0819 22.9736 65.1883 21.8835 65.1883 20.5387C65.1883 19.1939 64.0819 18.1038 62.7172 18.1038C61.3524 18.1038 60.2461 19.1939 60.2461 20.5387C60.2461 21.8835 61.3524 22.9736 62.7172 22.9736Z" fill="black"/>
<path d="M88.959 71.4822C90.514 71.4822 91.7676 70.2406 91.7676 68.7097C91.7676 67.1788 90.5019 65.9373 88.959 65.9373C87.4161 65.9373 86.1504 67.1788 86.1504 68.7097C86.1504 70.2406 87.4161 71.4822 88.959 71.4822Z" fill="black"/>
<path d="M56.293 19.7541C57.848 19.7541 59.1016 18.5126 59.1016 16.9817C59.1016 15.4508 57.8359 14.2092 56.293 14.2092C54.7501 14.2092 53.4844 15.4508 53.4844 16.9817C53.4844 18.5126 54.7501 19.7541 56.293 19.7541Z" fill="black"/>
<path d="M58.2207 31.5032C59.7757 31.5032 61.0293 30.2616 61.0293 28.7307C61.0293 27.1998 59.7637 25.9583 58.2207 25.9583C56.6778 25.9583 55.4121 27.1998 55.4121 28.7307C55.4121 30.2616 56.6778 31.5032 58.2207 31.5032Z" fill="black"/>
<path d="M55.063 42.7363C56.9314 42.7363 58.4502 41.2416 58.4502 39.3973C58.4502 37.5531 56.9314 36.0583 55.063 36.0583C53.1946 36.0583 51.6758 37.5531 51.6758 39.3973C51.6758 41.2416 53.1946 42.7363 55.063 42.7363Z" fill="black"/>
<path d="M44.805 42.7306C46.9819 42.7306 48.7467 40.9929 48.7467 38.8492C48.7467 36.7055 46.9819 34.9678 44.805 34.9678C42.628 34.9678 40.8633 36.7055 40.8633 38.8492C40.8633 40.9929 42.628 42.7306 44.805 42.7306Z" fill="black"/>
<path d="M32.8715 45.3977C35.3547 45.3977 37.3798 43.4088 37.3798 40.9618C37.3798 38.5148 35.3667 36.5259 32.8715 36.5259C30.3763 36.5259 28.3633 38.5148 28.3633 40.9618C28.3633 43.4088 30.3763 45.3977 32.8715 45.3977Z" fill="black"/>
<path d="M19.8172 51.7226C22.7397 51.7226 25.1089 49.3858 25.1089 46.5031C25.1089 43.6205 22.7397 41.2837 19.8172 41.2837C16.8946 41.2837 14.5254 43.6205 14.5254 46.5031C14.5254 49.3858 16.8946 51.7226 19.8172 51.7226Z" fill="black"/>
<path d="M6.30432 62.383C9.78609 62.383 12.6086 59.5982 12.6086 56.1631C12.6086 52.7279 9.78609 49.9431 6.30432 49.9431C2.82254 49.9431 0 52.7279 0 56.1631C0 59.5982 2.82254 62.383 6.30432 62.383Z" fill="black"/>
<path d="M14.5261 38.7275C17.4487 38.7275 19.8179 36.3906 19.8179 33.508C19.8179 30.6254 17.4487 28.2886 14.5261 28.2886C11.6036 28.2886 9.23438 30.6254 9.23438 33.508C9.23438 36.3906 11.6036 38.7275 14.5261 38.7275Z" fill="black"/>
<path d="M27.5922 32.4153C30.0754 32.4153 32.1005 30.4264 32.1005 27.9794C32.1005 25.5324 30.0874 23.5435 27.5922 23.5435C25.097 23.5435 23.084 25.5324 23.084 27.9794C23.084 30.4264 25.097 32.4153 27.5922 32.4153Z" fill="black"/>
<path d="M25.6762 20.6467C28.1594 20.6467 30.1845 18.6578 30.1845 16.2108C30.1845 13.7638 28.1714 11.7749 25.6762 11.7749C23.181 11.7749 21.168 13.7638 21.168 16.2108C21.168 18.6578 23.181 20.6467 25.6762 20.6467Z" fill="black"/>
<path d="M37.6077 17.9736C39.7847 17.9736 41.5494 16.2358 41.5494 14.0921C41.5494 11.9485 39.7847 10.2107 37.6077 10.2107C35.4308 10.2107 33.666 11.9485 33.666 14.0921C33.666 16.2358 35.4308 17.9736 37.6077 17.9736Z" fill="black"/>
<path d="M47.854 17.9856C49.7224 17.9856 51.2412 16.4909 51.2412 14.6466C51.2412 12.8023 49.7224 11.3076 47.854 11.3076C45.9856 11.3076 44.4668 12.8023 44.4668 14.6466C44.4668 16.4909 45.9856 17.9856 47.854 17.9856Z" fill="black"/>
<path d="M49.7583 29.7476C51.6267 29.7476 53.1455 28.2529 53.1455 26.4086C53.1455 24.5643 51.6267 23.0696 49.7583 23.0696C47.8899 23.0696 46.3711 24.5643 46.3711 26.4086C46.3711 28.2529 47.8899 29.7476 49.7583 29.7476Z" fill="black"/>
<path d="M39.5257 29.8459C41.7026 29.8459 43.4674 28.1081 43.4674 25.9644C43.4674 23.8208 41.7026 22.083 39.5257 22.083C37.3487 22.083 35.584 23.8208 35.584 25.9644C35.584 28.1081 37.3487 29.8459 39.5257 29.8459Z" fill="black"/>
<path d="M28.3747 59.3911C29.4957 59.3911 30.3998 58.4991 30.3998 57.3901C30.3998 56.2812 29.4957 55.3892 28.3747 55.3892C27.2537 55.3892 26.3496 56.2812 26.3496 57.3901C26.3496 58.4991 27.2537 59.3911 28.3747 59.3911Z" fill="black"/>
<path d="M36.475 58.3635C37.8398 58.3635 38.9461 57.2734 38.9461 55.9286C38.9461 54.5838 37.8398 53.4937 36.475 53.4937C35.1103 53.4937 34.0039 54.5838 34.0039 55.9286C34.0039 57.2734 35.1103 58.3635 36.475 58.3635Z" fill="black"/>
<path d="M45.3848 55.053C46.9398 55.053 48.1934 53.8114 48.1934 52.2805C48.1934 50.7496 46.9277 49.5081 45.3848 49.5081C43.8419 49.5081 42.5762 50.7496 42.5762 52.2805C42.5762 53.8114 43.8419 55.053 45.3848 55.053Z" fill="black"/>
<path d="M47.5181 63.9365C49.3865 63.9365 50.9053 62.4418 50.9053 60.5975C50.9053 58.7533 49.3865 57.2585 47.5181 57.2585C45.6497 57.2585 44.1309 58.7533 44.1309 60.5975C44.1309 62.4418 45.6497 63.9365 47.5181 63.9365Z" fill="black"/>
<path d="M36.7051 66.0491C38.2601 66.0491 39.5137 64.8075 39.5137 63.2766C39.5137 61.7457 38.248 60.5042 36.7051 60.5042C35.1622 60.5042 33.8965 61.7457 33.8965 63.2766C33.8965 64.8075 35.1622 66.0491 36.7051 66.0491Z" fill="black"/>
<path d="M27.1332 65.9258C28.498 65.9258 29.6043 64.8356 29.6043 63.4908C29.6043 62.1461 28.498 61.0559 27.1332 61.0559C25.7685 61.0559 24.6621 62.1461 24.6621 63.4908C24.6621 64.8356 25.7685 65.9258 27.1332 65.9258Z" fill="black"/>
<path d="M27.2539 73.5852C28.8089 73.5852 30.0625 72.3436 30.0625 70.8127C30.0625 69.2819 28.7969 68.0403 27.2539 68.0403C25.711 68.0403 24.4453 69.2819 24.4453 70.8127C24.4453 72.3436 25.711 73.5852 27.2539 73.5852Z" fill="black"/>
<path d="M38.729 75.0364C40.5974 75.0364 42.1162 73.5417 42.1162 71.6974C42.1162 69.8531 40.5974 68.3584 38.729 68.3584C36.8606 68.3584 35.3418 69.8531 35.3418 71.6974C35.3418 73.5417 36.8606 75.0364 38.729 75.0364Z" fill="black"/>
<path d="M52.1351 73.5832C54.312 73.5832 56.0768 71.8454 56.0768 69.7017C56.0768 67.5581 54.312 65.8203 52.1351 65.8203C49.9581 65.8203 48.1934 67.5581 48.1934 69.7017C48.1934 71.8454 49.9581 73.5832 52.1351 73.5832Z" fill="black"/>
<path d="M60.018 83.241C62.5012 83.241 64.5263 81.252 64.5263 78.8051C64.5263 76.3581 62.5132 74.3691 60.018 74.3691C57.5228 74.3691 55.5098 76.3581 55.5098 78.8051C55.5098 81.252 57.5228 83.241 60.018 83.241Z" fill="black"/>
<path d="M43.4554 84.5727C45.6323 84.5727 47.3971 82.8349 47.3971 80.6912C47.3971 78.5476 45.6323 76.8098 43.4554 76.8098C41.2784 76.8098 39.5137 78.5476 39.5137 80.6912C39.5137 82.8349 41.2784 84.5727 43.4554 84.5727Z" fill="black"/>
<path d="M34.1253 92.1154C36.3022 92.1154 38.067 90.3776 38.067 88.234C38.067 86.0903 36.3022 84.3525 34.1253 84.3525C31.9484 84.3525 30.1836 86.0903 30.1836 88.234C30.1836 90.3776 31.9484 92.1154 34.1253 92.1154Z" fill="black"/>
<path d="M41.8872 101.897C44.3703 101.897 46.3954 99.9078 46.3954 97.4608C46.3954 95.0138 44.3824 93.0249 41.8872 93.0249C39.3919 93.0249 37.3789 95.0138 37.3789 97.4608C37.3789 99.9078 39.3919 101.897 41.8872 101.897Z" fill="black"/>
<path d="M62.5965 103.665C65.5136 103.665 67.8882 101.326 67.8882 98.4455C67.8882 95.5646 65.5256 93.2261 62.5965 93.2261C59.6673 93.2261 57.3047 95.5646 57.3047 98.4455C57.3047 101.326 59.6673 103.665 62.5965 103.665Z" fill="black"/>
<path d="M51.2309 94.3474C53.7141 94.3474 55.7392 92.3585 55.7392 89.9115C55.7392 87.4645 53.7261 85.4756 51.2309 85.4756C48.7357 85.4756 46.7227 87.4645 46.7227 89.9115C46.7227 92.3585 48.7357 94.3474 51.2309 94.3474Z" fill="black"/>
<path d="M71.2761 92.578C74.1987 92.578 76.5679 90.2412 76.5679 87.3586C76.5679 84.476 74.1987 82.1392 71.2761 82.1392C68.3536 82.1392 65.9844 84.476 65.9844 87.3586C65.9844 90.2412 68.3536 92.578 71.2761 92.578Z" fill="black"/>
<path d="M29.3872 82.5791C31.2556 82.5791 32.7744 81.0844 32.7744 79.2401C32.7744 77.3958 31.2556 75.9011 29.3872 75.9011C27.5188 75.9011 26 77.3958 26 79.2401C26 81.0844 27.5188 82.5791 29.3872 82.5791Z" fill="black"/>
<path d="M448.14 13.8685H453.067L461.634 34.7861H461.949L470.516 13.8685H475.443V40.7776H471.58V21.3053H471.331L463.395 40.7382H460.189L452.252 21.2921H452.003V40.7776H448.14V13.8685ZM494.925 32.4079V20.5958H498.867V40.7776H495.004V37.2826H494.794C494.329 38.36 493.585 39.2578 492.56 39.9761C491.544 40.6856 490.278 41.0404 488.763 41.0404C487.466 41.0404 486.319 40.7557 485.32 40.1863C484.33 39.6082 483.551 38.7542 482.982 37.6242C482.421 36.4942 482.141 35.0971 482.141 33.4328V20.5958H486.069V32.9598C486.069 34.335 486.45 35.4299 487.212 36.2446C487.974 37.0592 488.964 37.4665 490.182 37.4665C490.918 37.4665 491.649 37.2826 492.376 36.9147C493.112 36.5468 493.721 35.9905 494.202 35.246C494.693 34.5014 494.934 33.5554 494.925 32.4079ZM505.256 13.8685H509.184V35.2591C509.184 36.1263 509.294 36.7395 509.513 37.0986C509.74 37.4577 510.17 37.6286 510.8 37.611C511.142 37.6023 511.396 37.5804 511.562 37.5453C511.738 37.5103 511.895 37.4709 512.035 37.4271L512.745 40.5674C512.473 40.6462 512.127 40.7207 511.707 40.7907C511.295 40.8696 510.827 40.9134 510.301 40.9221C508.602 40.9484 507.336 40.5455 506.504 39.7133C505.672 38.8812 505.256 37.668 505.256 36.0738V13.8685ZM525.867 20.5958V23.7492H514.844V20.5958H525.867ZM517.8 15.7605H521.729V34.8518C521.729 35.6139 521.842 36.1876 522.07 36.573C522.298 36.9497 522.591 37.2081 522.95 37.3483C523.318 37.4796 523.717 37.5453 524.146 37.5453C524.461 37.5453 524.737 37.5234 524.974 37.4796C525.21 37.4359 525.394 37.4008 525.526 37.3745L526.235 40.6199C526.008 40.7075 525.683 40.7951 525.263 40.8827C524.843 40.9791 524.317 41.0316 523.686 41.0404C522.653 41.0579 521.689 40.8739 520.796 40.4885C519.902 40.1031 519.18 39.5075 518.628 38.7016C518.076 37.8957 517.8 36.884 517.8 35.6664V15.7605ZM531.323 40.7776V20.5958H535.252V40.7776H531.323ZM533.307 17.4818C532.624 17.4818 532.037 17.254 531.547 16.7985C531.065 16.3343 530.824 15.7824 530.824 15.143C530.824 14.4948 531.065 13.943 531.547 13.4875C532.037 13.0232 532.624 12.7911 533.307 12.7911C533.99 12.7911 534.573 13.0232 535.055 13.4875C535.545 13.943 535.79 14.4948 535.79 15.143C535.79 15.7824 535.545 16.3343 535.055 16.7985C534.573 17.254 533.99 17.4818 533.307 17.4818ZM556.77 25.523L553.21 26.1537C553.061 25.6982 552.824 25.2646 552.5 24.8529C552.185 24.4412 551.755 24.1039 551.212 23.8412C550.669 23.5784 549.99 23.447 549.176 23.447C548.063 23.447 547.135 23.6966 546.39 24.1959C545.646 24.6864 545.273 25.3215 545.273 26.1011C545.273 26.7756 545.523 27.3187 546.022 27.7304C546.522 28.1421 547.328 28.4793 548.44 28.7421L551.646 29.4779C553.503 29.9071 554.887 30.5684 555.798 31.4619C556.709 32.3554 557.164 33.516 557.164 34.9438C557.164 36.1526 556.814 37.23 556.113 38.176C555.421 39.1133 554.453 39.8491 553.21 40.3834C551.974 40.9177 550.542 41.1849 548.913 41.1849C546.653 41.1849 544.809 40.7031 543.381 39.7396C541.954 38.7673 541.078 37.3877 540.754 35.6007L544.551 35.0226C544.787 36.0124 545.273 36.7614 546.009 37.2694C546.745 37.7687 547.704 38.0184 548.887 38.0184C550.174 38.0184 551.204 37.7512 551.974 37.2169C552.745 36.6738 553.131 36.0124 553.131 35.2328C553.131 34.6022 552.894 34.0722 552.421 33.643C551.957 33.2138 551.243 32.8897 550.279 32.6707L546.863 31.9218C544.98 31.4926 543.587 30.8093 542.685 29.872C541.792 28.9348 541.345 27.7479 541.345 26.3113C541.345 25.12 541.678 24.0777 542.343 23.1842C543.009 22.2907 543.929 21.5943 545.103 21.0951C546.276 20.587 547.621 20.333 549.136 20.333C551.317 20.333 553.034 20.806 554.287 21.752C555.54 22.6893 556.367 23.9463 556.77 25.523ZM562.594 40.7776V20.5958H566.523V40.7776H562.594ZM564.578 17.4818C563.895 17.4818 563.308 17.254 562.817 16.7985C562.336 16.3343 562.095 15.7824 562.095 15.143C562.095 14.4948 562.336 13.943 562.817 13.4875C563.308 13.0232 563.895 12.7911 564.578 12.7911C565.261 12.7911 565.844 13.0232 566.325 13.4875C566.816 13.943 567.061 14.4948 567.061 15.143C567.061 15.7824 566.816 16.3343 566.325 16.7985C565.844 17.254 565.261 17.4818 564.578 17.4818ZM581.379 48.7662C579.776 48.7662 578.397 48.556 577.241 48.1355C576.093 47.7151 575.156 47.1589 574.429 46.4669C573.702 45.7749 573.159 45.0172 572.8 44.1938L576.176 42.801C576.413 43.1864 576.728 43.5938 577.122 44.023C577.525 44.4609 578.068 44.8332 578.752 45.1398C579.444 45.4464 580.333 45.5997 581.419 45.5997C582.908 45.5997 584.139 45.2362 585.111 44.5091C586.083 43.7908 586.569 42.6434 586.569 41.0667V37.0986H586.32C586.083 37.5278 585.742 38.0052 585.295 38.5308C584.857 39.0564 584.253 39.5118 583.482 39.8973C582.711 40.2827 581.708 40.4754 580.473 40.4754C578.879 40.4754 577.442 40.1031 576.163 39.3586C574.893 38.6052 573.886 37.4972 573.141 36.0343C572.405 34.5627 572.037 32.7539 572.037 30.6078C572.037 28.4618 572.401 26.6223 573.128 25.0894C573.864 23.5565 574.871 22.3827 576.15 21.5681C577.429 20.7447 578.879 20.333 580.499 20.333C581.752 20.333 582.763 20.5432 583.534 20.9637C584.305 21.3754 584.905 21.8571 585.334 22.409C585.772 22.9608 586.11 23.447 586.346 23.8674H586.635V20.5958H590.485V41.2243C590.485 42.9587 590.082 44.3821 589.276 45.4946C588.47 46.607 587.38 47.4304 586.004 47.9647C584.638 48.4991 583.096 48.7662 581.379 48.7662ZM581.34 37.2169C582.47 37.2169 583.425 36.9541 584.204 36.4285C584.993 35.8942 585.588 35.1321 585.991 34.1423C586.403 33.1437 586.609 31.948 586.609 30.5553C586.609 29.1976 586.407 28.0019 586.004 26.9683C585.602 25.9347 585.01 25.1288 584.231 24.5507C583.451 23.9638 582.488 23.6703 581.34 23.6703C580.158 23.6703 579.172 23.9769 578.384 24.5901C577.595 25.1945 577 26.0179 576.597 27.0603C576.203 28.1026 576.006 29.2676 576.006 30.5553C576.006 31.878 576.207 33.0386 576.61 34.0372C577.013 35.0358 577.609 35.8153 578.397 36.376C579.194 36.9366 580.175 37.2169 581.34 37.2169ZM448.14 58.8685H453.067L461.634 79.7861H461.949L470.516 58.8685H475.443V85.7776H471.58V66.3053H471.331L463.395 85.7382H460.189L452.252 66.2921H452.003V85.7776H448.14V58.8685ZM489.696 86.1718C488.066 86.1718 486.612 85.7557 485.333 84.9235C484.063 84.0826 483.065 82.887 482.338 81.3365C481.619 79.7774 481.26 77.9072 481.26 75.7261C481.26 73.545 481.624 71.6792 482.351 70.1288C483.087 68.5784 484.094 67.3915 485.373 66.5681C486.652 65.7447 488.101 65.333 489.722 65.333C490.975 65.333 491.982 65.5432 492.744 65.9637C493.515 66.3754 494.11 66.8571 494.531 67.409C494.96 67.9608 495.293 68.447 495.529 68.8674H495.766V65.5958H499.695V85.7776H495.858V82.6373H495.529C495.293 83.0665 494.951 83.5571 494.505 84.1089C494.067 84.6608 493.462 85.1425 492.691 85.5542C491.921 85.9659 490.922 86.1718 489.696 86.1718ZM490.563 82.8213C491.693 82.8213 492.648 82.5234 493.427 81.9278C494.216 81.3234 494.811 80.4869 495.214 79.4182C495.626 78.3496 495.832 77.1057 495.832 75.6867C495.832 74.2852 495.63 73.0588 495.227 72.0077C494.824 70.9566 494.233 70.1376 493.453 69.5507C492.674 68.9638 491.71 68.6703 490.563 68.6703C489.38 68.6703 488.395 68.9769 487.607 69.5901C486.818 70.2033 486.223 71.0398 485.82 72.0997C485.425 73.1596 485.228 74.3552 485.228 75.6867C485.228 77.0356 485.43 78.2488 485.833 79.3262C486.236 80.4037 486.831 81.2577 487.62 81.8884C488.417 82.5103 489.398 82.8213 490.563 82.8213ZM510.34 73.7946V85.7776H506.412V65.5958H510.183V68.8806H510.432C510.897 67.8119 511.624 66.9535 512.613 66.3053C513.612 65.6571 514.869 65.333 516.384 65.333C517.76 65.333 518.964 65.622 519.998 66.2002C521.031 66.7695 521.833 67.6192 522.402 68.7492C522.972 69.8792 523.256 71.2763 523.256 72.9406V85.7776H519.328V73.4136C519.328 71.9508 518.947 70.8077 518.184 69.9843C517.422 69.1521 516.376 68.736 515.044 68.736C514.133 68.736 513.323 68.9331 512.613 69.3273C511.913 69.7215 511.356 70.2996 510.945 71.0617C510.542 71.815 510.34 72.726 510.34 73.7946ZM537.19 86.1718C535.561 86.1718 534.107 85.7557 532.828 84.9235C531.558 84.0826 530.559 82.887 529.832 81.3365C529.114 79.7774 528.755 77.9072 528.755 75.7261C528.755 73.545 529.118 71.6792 529.845 70.1288C530.581 68.5784 531.588 67.3915 532.867 66.5681C534.146 65.7447 535.596 65.333 537.216 65.333C538.469 65.333 539.476 65.5432 540.238 65.9637C541.009 66.3754 541.605 66.8571 542.025 67.409C542.455 67.9608 542.787 68.447 543.024 68.8674H543.26V65.5958H547.189V85.7776H543.352V82.6373H543.024C542.787 83.0665 542.446 83.5571 541.999 84.1089C541.561 84.6608 540.957 85.1425 540.186 85.5542C539.415 85.9659 538.416 86.1718 537.19 86.1718ZM538.057 82.8213C539.187 82.8213 540.142 82.5234 540.922 81.9278C541.71 81.3234 542.306 80.4869 542.709 79.4182C543.12 78.3496 543.326 77.1057 543.326 75.6867C543.326 74.2852 543.125 73.0588 542.722 72.0077C542.319 70.9566 541.727 70.1376 540.948 69.5507C540.168 68.9638 539.205 68.6703 538.057 68.6703C536.875 68.6703 535.889 68.9769 535.101 69.5901C534.313 70.2033 533.717 71.0398 533.314 72.0997C532.92 73.1596 532.723 74.3552 532.723 75.6867C532.723 77.0356 532.924 78.2488 533.327 79.3262C533.73 80.4037 534.326 81.2577 535.114 81.8884C535.911 82.5103 536.892 82.8213 538.057 82.8213ZM562.368 93.7662C560.765 93.7662 559.385 93.556 558.229 93.1355C557.081 92.7151 556.144 92.1589 555.417 91.4669C554.69 90.7749 554.147 90.0172 553.788 89.1938L557.165 87.801C557.401 88.1864 557.717 88.5938 558.111 89.023C558.514 89.4609 559.057 89.8332 559.74 90.1398C560.432 90.4464 561.321 90.5997 562.407 90.5997C563.896 90.5997 565.127 90.2362 566.099 89.5091C567.072 88.7908 567.558 87.6434 567.558 86.0667V82.0986H567.308C567.072 82.5278 566.73 83.0052 566.283 83.5308C565.845 84.0564 565.241 84.5118 564.47 84.8973C563.699 85.2827 562.696 85.4754 561.461 85.4754C559.867 85.4754 558.43 85.1031 557.152 84.3586C555.881 83.6052 554.874 82.4972 554.13 81.0343C553.394 79.5627 553.026 77.7539 553.026 75.6078C553.026 73.4618 553.389 71.6223 554.116 70.0894C554.852 68.5565 555.86 67.3827 557.138 66.5681C558.417 65.7447 559.867 65.333 561.487 65.333C562.74 65.333 563.752 65.5432 564.523 65.9637C565.293 66.3754 565.894 66.8571 566.323 67.409C566.761 67.9608 567.098 68.447 567.334 68.8674H567.624V65.5958H571.473V86.2243C571.473 87.9587 571.07 89.3821 570.264 90.4946C569.459 91.607 568.368 92.4304 566.993 92.9647C565.626 93.4991 564.085 93.7662 562.368 93.7662ZM562.328 82.2169C563.458 82.2169 564.413 81.9541 565.193 81.4285C565.981 80.8942 566.577 80.1321 566.98 79.1423C567.391 78.1437 567.597 76.948 567.597 75.5553C567.597 74.1976 567.396 73.0019 566.993 71.9683C566.59 70.9347 565.999 70.1288 565.219 69.5507C564.439 68.9638 563.476 68.6703 562.328 68.6703C561.146 68.6703 560.16 68.9769 559.372 69.5901C558.584 70.1945 557.988 71.0179 557.585 72.0603C557.191 73.1026 556.994 74.2676 556.994 75.5553C556.994 76.878 557.195 78.0386 557.598 79.0372C558.001 80.0358 558.597 80.8153 559.385 81.376C560.182 81.9366 561.163 82.2169 562.328 82.2169ZM586.55 86.1849C584.562 86.1849 582.849 85.7601 581.413 84.9104C579.985 84.052 578.881 82.8475 578.102 81.2971C577.331 79.7379 576.946 77.9116 576.946 75.8181C576.946 73.7508 577.331 71.9289 578.102 70.3522C578.881 68.7755 579.968 67.5448 581.36 66.66C582.762 65.7753 584.4 65.333 586.274 65.333C587.413 65.333 588.517 65.5213 589.585 65.898C590.654 66.2746 591.613 66.8659 592.463 67.6718C593.313 68.4776 593.983 69.5244 594.473 70.812C594.964 72.0909 595.209 73.6457 595.209 75.4765V76.8692H579.166V73.926H591.359C591.359 72.8924 591.149 71.977 590.729 71.1799C590.308 70.3741 589.717 69.739 588.955 69.2747C588.201 68.8105 587.317 68.5784 586.301 68.5784C585.197 68.5784 584.233 68.8499 583.41 69.393C582.595 69.9273 581.965 70.6281 581.518 71.4953C581.08 72.3537 580.861 73.2866 580.861 74.2939V76.5933C580.861 77.9422 581.097 79.0897 581.571 80.0358C582.052 80.9818 582.722 81.7044 583.581 82.2037C584.439 82.6943 585.442 82.9395 586.59 82.9395C587.334 82.9395 588.013 82.8344 588.626 82.6242C589.239 82.4052 589.769 82.0811 590.216 81.6519C590.663 81.2227 591.004 80.6927 591.241 80.062L594.959 80.7321C594.662 81.8271 594.127 82.7862 593.356 83.6096C592.594 84.4242 591.635 85.0593 590.479 85.5148C589.331 85.9615 588.022 86.1849 586.55 86.1849ZM600.678 85.7776V65.5958H604.475V68.8017H604.685C605.053 67.7156 605.701 66.8615 606.63 66.2396C607.559 65.6089 608.618 65.2936 609.81 65.2936C610.362 65.2936 610.856 65.3593 611.294 65.4907C611.732 65.622 612.118 65.8016 612.451 66.0294L611.189 69.3142C610.953 69.2003 610.686 69.1083 610.388 69.0382C610.09 68.9594 609.748 68.92 609.363 68.92C608.452 68.92 607.637 69.1171 606.919 69.5113C606.21 69.8967 605.645 70.431 605.224 71.1142C604.812 71.7975 604.607 72.5771 604.607 73.453V85.7776H600.678Z" fill="black"/>
</svg>
